# xmcd
#
# Track frame offsets:
#	150
#	14792
#	29298
#	38517
#	51458
#	69673
#	81434
#	91201
#	102897
#	117830
#	126696
#	139414
#	151797
#	160537
#	172082
#	184514
#	192720
#	206172
#	209211
#	220581
#
# Disc length: 3107 seconds
#
# Revision: 0
# Processed by: cddbd v1.5.2PL0 Copyright (c) Steve Scherf et al.
# Submitted via: audiograbber 1.83.01
#
DISCID=300c2114
DTITLE=Nay Family Band - Live from their Living Room
DYEAR=2008
DGENRE=Bluegrass
TTITLE0=Across the Great Divide
TTITLE1=I'll Fly Away
TTITLE2=Cherokee Shuffle
TTITLE3=Copper Still
TTITLE4=Rocky Top
TTITLE5=You Don't Have to Go Home
TTITLE6=Raining in the Mountains
TTITLE7=Hills of My Home
TTITLE8=I Miss You
TTITLE9=Old Joe Clark
TTITLE10=The Biscut Song
TTITLE11=Cowboy's Lament
TTITLE12=Rains Everywhere I Go
TTITLE13=If Wishes Were Horses
TTITLE14=One Voice
TTITLE15=Woody's Rag
TTITLE16=I've Endured
TTITLE17=Megan's Creation
TTITLE18=Ride a Train
TTITLE19=Crawdad Song
EXTD=
EXTT0=
EXTT1=
EXTT2=
EXTT3=
EXTT4=
EXTT5=
EXTT6=
EXTT7=
EXTT8=
EXTT9=
EXTT10=
EXTT11=
EXTT12=
EXTT13=
EXTT14=
EXTT15=
EXTT16=
EXTT17=
EXTT18=
EXTT19=
PLAYORDER=
